<svg xmlns="http://www.w3.org/2000/svg" width="32.229" height="32.229" viewBox="0 0 32.229 32.229"><path d="M17.429,4c3.646,0,4.1.013,5.533.081a9.856,9.856,0,0,1,3.263.624A6.552,6.552,0,0,1,28.6,6.256a6.571,6.571,0,0,1,1.551,2.377,9.994,9.994,0,0,1,.624,3.263c.06,1.43.081,1.887.081,5.533s-.013,4.1-.081,5.533a10.031,10.031,0,0,1-.624,3.263A6.459,6.459,0,0,1,28.6,28.6a6.571,6.571,0,0,1-2.377,1.551,9.994,9.994,0,0,1-3.263.624c-1.43.06-1.887.081-5.533.081s-4.1-.013-5.533-.081a10.031,10.031,0,0,1-3.263-.624,6.9,6.9,0,0,1-3.928-3.928,9.82,9.82,0,0,1-.624-3.263C4.02,21.532,4,21.075,4,17.429s.013-4.1.081-5.533a9.82,9.82,0,0,1,.624-3.263A6.46,6.46,0,0,1,6.256,6.256,6.515,6.515,0,0,1,8.633,4.705,9.82,9.82,0,0,1,11.9,4.081C13.326,4.02,13.783,4,17.429,4Zm0,6.714a6.714,6.714,0,1,0,6.714,6.714A6.717,6.717,0,0,0,17.429,10.714Zm8.729-.336a1.679,1.679,0,1,0-1.679,1.679A1.679,1.679,0,0,0,26.158,10.379ZM17.429,13.4A4.029,4.029,0,1,1,13.4,17.429,4.032,4.032,0,0,1,17.429,13.4Z" transform="translate(-1.314 -1.314)"/><path d="M0,0H32.229V32.229H0Z" fill="none"/></svg>