<svg xmlns="http://www.w3.org/2000/svg" width="34.146" height="34.146" viewBox="0 0 34.146 34.146"><path d="M27.818,27.825H24.026V21.878c0-1.416-.028-3.237-1.978-3.237-1.978,0-2.276,1.544-2.276,3.137v6.047H15.981V15.6h3.642v1.665h.05A3.983,3.983,0,0,1,23.265,15.3c3.841,0,4.553,2.525,4.553,5.819ZM11.7,13.932a2.225,2.225,0,0,1-1.565-.647,2.2,2.2,0,1,1,1.558.647Zm1.9,13.893H9.792V15.6H13.6ZM29.718,6H7.892A1.868,1.868,0,0,0,6,7.842V29.767A1.868,1.868,0,0,0,7.892,31.61H29.71a1.874,1.874,0,0,0,1.9-1.842V7.842A1.874,1.874,0,0,0,29.71,6Z" transform="translate(-1.732 -1.732)"/><path d="M0,0H34.146V34.146H0Z" fill="none"/></svg>