<svg xmlns="http://www.w3.org/2000/svg" width="27.169" height="23.068" viewBox="0 0 27.169 23.068">
  <g id="Hummony" transform="translate(0 -3.97)">
    <g id="Group_6" data-name="Group 6" transform="translate(0 3.97)">
      <g id="Group_5" data-name="Group 5">
        <path id="Path_7" data-name="Path 7" d="M34.365,3.97s.024.017.014.028c-1.581,1.075-3.76,1.508-5,3.048a8.638,8.638,0,0,0-1.4,4.161,19.392,19.392,0,0,1-10.5,14.128,26.315,26.315,0,0,1-5.586,1.7c3.072-1.878,5.924-4.919,6.724-8.521a9.3,9.3,0,0,0-.433-5.366,8.477,8.477,0,0,0-7.1-5.163,18.3,18.3,0,0,1,8.762,2.489c.778.482,1.857,1.264,2.807.751,1.267-.684.946-2.8,1.718-3.882,1.152-1.613,3.613-1.1,5.289-1.6,1.609-.478,3.11-1.274,4.716-1.777Z" transform="translate(-7.212 -3.97)" fill="#fff"/>
        <path id="Path_8" data-name="Path 8" d="M11,23.963A19,19,0,0,1,0,17.316a8.052,8.052,0,0,1,11,6.647Z" transform="translate(0 -12.282)" fill="#fff"/>
      </g>
    </g>
  </g>
</svg>
