<svg xmlns="http://www.w3.org/2000/svg" width="29.433" height="23.926" viewBox="0 0 29.433 23.926"><path d="M32.986,10.217a12,12,0,0,1-3.465.953,6.047,6.047,0,0,0,2.657-3.343,12.018,12.018,0,0,1-3.833,1.466A6.038,6.038,0,0,0,18.057,14.8,17.152,17.152,0,0,1,5.61,8.491a5.977,5.977,0,0,0-.823,3.032,6.055,6.055,0,0,0,2.686,5.032A6.049,6.049,0,0,1,4.744,15.8v.072A6.039,6.039,0,0,0,9.588,21.8a6.118,6.118,0,0,1-2.729.1A6.037,6.037,0,0,0,12.5,26.092a12.1,12.1,0,0,1-8.938,2.5A17.025,17.025,0,0,0,12.815,31.3C23.919,31.3,30,22.107,30,14.122q0-.39-.022-.78a12.3,12.3,0,0,0,3.018-3.126Z" transform="translate(-3.56 -7.378)"/></svg>